<?xml version="1.0" standalone="no"?><!DOCTYPE svg PUBLIC "-//W3C//DTD SVG 1.1//EN" "http://www.w3.org/Graphics/SVG/1.1/DTD/svg11.dtd"><svg t="1745924763124" class="icon" viewBox="0 0 1024 1024" version="1.1" xmlns="http://www.w3.org/2000/svg" p-id="2756" xmlns:xlink="http://www.w3.org/1999/xlink" width="200" height="200"><path d="M286.464 455.296c9.92-0.213333 19.285333-0.426667 25.728-3.754667 17.130667-8.853333 10.346667-45.098667 6.293333-66.752-0.64-3.456-1.237333-6.634667-1.685333-9.386666-1.472-8.96-9.429333-19.029333-20.757333-26.261334-8.704-5.546667-18.176-8.576-26.218667-8.576a26.453333 26.453333 0 0 0-7.018667 0.896c-6.805333 1.898667-11.242667 11.178667-13.568 28.330667a10.88 10.88 0 0 1-8.746666 9.237333 152.149333 152.149333 0 0 1-14.848 1.792c-21.290667 1.877333-26.048 4.181333-26.816 12.906667-1.002667 11.456 7.317333 20.586667 16.96 31.146667 10.88 11.968 23.210667 25.514667 21.653333 44.821333 4.288-3.434667 9.194667-6.165333 13.525333-8.298667 11.157333-5.568 23.530667-5.845333 35.498667-6.101333z" p-id="2757"></path><path d="M949.077333 551.722667l-7.168-8.469334a811.776 811.776 0 0 0-29.056-33.301333 382.336 382.336 0 0 0-21.034666-20.074667c-17.450667-15.850667-37.248-33.813333-40.448-50.709333-1.642667-8.661333 2.581333-19.349333 7.04-30.656l2.901333-7.424c7.317333-19.626667 10.218667-39.104 9.130667-61.184-0.512-10.496-3.52-64.021333-13.013334-86.762667C790.442667 92.266667 646.336 0 462.122667 0 239.296 0 58.026667 180.629333 58.026667 402.666667c0 62.101333 14.592 124.074667 42.154666 179.242666a404.074667 404.074667 0 0 0 48.896 75.392l4.352 5.248c16.469333 19.925333 24.746667 29.888 25.514667 53.12 0.362667 11.029333 0.597333 22.698667 0 33.557334-0.917333 17.408-9.258667 38.378667-24.064 60.757333-13.504 20.373333-25.642667 42.069333-37.376 63.04a919.722667 919.722667 0 0 1-35.413333 58.794667L575.232 1024c5.930667-18.773333 9.386667-33.130667 12.010667-44.010667 4.693333-19.712 6.378667-25.813333 14.101333-34.730666 3.989333-4.544 11.392-10.154667 18.922667-15.786667 14.741333-11.114667 33.258667-17.024 52.544-22.549333 17.344-4.949333 38.229333-3.690667 60.373333-2.24 30.272 1.92 61.546667 3.861333 90.154667-9.642667 14.634667-6.869333 24.021333-16.448 27.968-28.565333 6.293333-19.392-3.392-37.056-11.989334-52.693334-4.928-9.002667-11.114667-20.224-9.962666-25.792 0.853333-2.218667 7.914667-6.826667 11.754666-9.322666 10.624-6.912 25.216-16.426667 26.218667-34.986667 0.618667-12.202667-5.973333-22.677333-14.336-31.509333 3.946667-1.28 7.786667-2.368 10.581333-3.157334 6.698667-1.962667 12.970667-3.84 17.984-5.909333a21.76 21.76 0 0 0 4.16-37.802667c-6.592-4.629333-19.221333-17.578667-13.845333-25.728 4.373333-6.677333 17.322667-8.96 31.018667-11.370666 11.456-2.005333 23.274667-4.074667 34.048-9.344 9.344-4.544 25.002667-12.138667 28.394666-28.181334 3.328-15.808-7.04-28.117333-16.256-38.954666zM237.866667 241.216c19.648-2.922667 28.970667-6.357333 32.277333-18.986667 3.413333-13.098667-2.581333-24.746667-9.536-38.229333l-2.752-5.397333a10.88 10.88 0 1 1 19.413333-9.749334l2.666667 5.205334c7.850667 15.253333 16.768 32.533333 11.221333 53.696-7.488 28.629333-34.154667 32.597333-50.112 34.986666a10.837333 10.837333 0 0 1-12.330666-9.152 10.88 10.88 0 0 1 9.152-12.373333z m-65.450667-29.44c6.634667-6.528 15.018667-8.213333 21.781333-9.536 2.581333-0.512 7.402667-1.472 8.128-2.368a10.88 10.88 0 0 1 16.853334 13.717333c-5.696 6.997333-14.058667 8.64-20.778667 9.984-4.501333 0.896-8.746667 1.749333-10.773333 3.733334-4.309333 4.224-5.781333 8.597333-5.653334 16.768 0.362667 23.125333 5.866667 41.685333 10.773334 44.501333a10.837333 10.837333 0 1 1-10.858667 18.816c-18.794667-10.837333-21.397333-47.637333-21.653333-62.976-0.170667-9.493333 1.066667-21.781333 12.181333-32.64z m521.472 63.146667c-9.856 11.754667-36.437333 14.08-65.173333 15.573333-3.498667 0.192-6.464 0.341333-8.597334 0.512-24.085333 2.112-32.832-9.472-42.922666-22.826667l-4.757334-6.336c-16.618667-22.314667-21.674667-29.056-46.336-25.365333-13.781333 2.048-17.450667 5.184-18.389333 6.848-1.28 2.24-0.490667 7.082667 2.112 13.269333l2.709333 6.250667c4.736 10.794667 8.853333 20.117333 3.946667 29.333333-4.8 9.045333-16 12.224-27.392 14.293334-44.117333 8.106667-73.28-10.410667-81.984-52.010667-3.882667-18.666667-4.330667-21.568-20.522667-19.178667-4.565333 0.661333-8.298667 2.944-12.992 5.824a67.626667 67.626667 0 0 1-14.933333 7.402667v0.213333c-0.106667 11.541333-0.213333 25.877333 3.114667 34.56 1.557333 4.074667 2.218667 5.12 2.410666 5.376 0.32 0.149333 2.325333 0.896 4.117334 1.514667l4.949333 1.834667c3.306667 1.28 7.466667 2.666667 12.053333 4.202666 17.429333 5.824 39.168 13.077333 49.045334 24.725334 4.074667 4.821333 5.056 10.602667 5.845333 15.253333l0.426667 2.282667 0.554666-0.128c2.24-0.554667 5.034667-1.237333 8.170667-1.28 6.613333-0.170667 11.221333 0.981333 16.405333 1.962666 3.84 0.746667 7.701333 1.557333 11.669334 1.6 16.021333 0.213333 22.72-2.176 23.936-3.093333 0-0.448-0.277333-3.392-0.426667-5.141333-0.448-5.162667-1.045333-12.245333 3.349333-18.496 7.082667-10.048 16.917333-9.941333 24.064-9.856l2.218667 0.021333c17.109333 0.042667 23.125333 1.514667 29.162667 18.944 8.448 24.426667-2.474667 49.344-32.490667 74.069333-14.314667 11.776-30.656 15.104-46.421333 18.346667-13.717333 2.794667-26.666667 5.44-37.568 13.568-7.637333 5.674667-7.253333 7.530667-4.842667 19.605333 0.725333 3.562667 1.493333 7.466667 2.069333 11.84a10.816 10.816 0 0 1-8.768 12.117334 98.346667 98.346667 0 0 1-10.56 0.938666 109.312 109.312 0 0 0-13.482666 1.258667c-0.021333 1.045333 0.042667 2.282667 0.064 3.242667 0.106667 2.794667 0.234667 5.952-0.32 9.088-3.285333 18.474667-9.92 55.530667-49.621334 55.530666a72.106667 72.106667 0 0 1-9.066666-0.576c-5.696-0.725333-11.968-0.810667-18.218667-0.896-8.896-0.128-18.090667-0.298667-26.282667-2.048-15.104-3.178667-33.322667-10.389333-54.101333-21.418666-10.154667-5.397333-23.552-14.101333-23.850667-27.690667-8.704 9.429333-19.370667 16.554667-19.541333 16.682667-9.664 6.378667-19.498667 8.533333-29.162667 6.378666-17.216-3.818667-28.949333-20.16-36.288-32.128a171.584 171.584 0 0 1-8.042666-15.274666c-3.093333-6.357333-5.994667-12.352-10.005334-17.792-1.792-2.432-3.733333-4.821333-5.632-7.210667-7.765333-9.706667-16.576-20.693333-18.645333-35.84-0.597333-4.352-2.88-26.624 10.197333-38.677333 6.229333-5.76 14.208-6.08 20.565334-6.336 2.282667-0.085333 5.738667-0.234667 6.741333-0.725334-0.32 0-0.810667-2.048-1.152-3.392-1.429333-5.653333-4.032-16.192 5.269333-25.429333 6.869333-6.805333 15.573333-7.744 22.570667-8.490667 3.797333-0.405333 7.744-0.832 9.237333-2.090666a10.858667 10.858667 0 1 1 13.994667 16.618666c-6.592 5.525333-14.549333 6.4-20.928 7.082667-3.989333 0.426667-8.106667 0.874667-9.578667 2.304-0.426667 0.981333 0.149333 3.242667 0.512 4.757333 1.408 5.696 4.074667 16.32-5.802666 25.088-6.08 5.418667-13.781333 5.738667-19.968 5.994667-2.218667 0.085333-5.952 0.234667-6.997334 0.789333-2.709333 2.56-4.245333 11.413333-3.136 19.562667 1.258667 9.173333 7.189333 16.597333 14.08 25.173333 2.090667 2.602667 4.16 5.205333 6.144 7.872 5.248 7.082667 8.725333 14.293333 12.096 21.269334 2.176 4.501333 4.330667 9.002667 7.018667 13.376 8.149333 13.290667 15.701333 20.778667 22.464 22.272 3.733333 0.832 7.829333-0.234667 12.458667-3.306667 9.728-6.421333 20.096-17.173333 21.056-20.821333 0.832-9.621333-7.018667-18.218667-16.106667-28.202667-11.413333-12.522667-24.341333-26.730667-22.528-47.637333 2.474667-28.821333 29.013333-31.146667 46.570667-32.704l5.248-0.469334c2.496-13.141333 8.746667-32.789333 27.968-38.144 15.104-4.245333 34.069333-0.362667 50.773333 10.304 16.64 10.624 28.032 25.984 30.506667 41.066667l1.621333 8.896c5.162667 27.605333 13.781333 73.813333-17.706667 90.069333-10.922667 5.632-23.274667 5.909333-35.242666 6.165334-10.026667 0.213333-19.477333 0.426667-26.218667 3.797333-10.197333 5.077333-12.309333 8.362667-12.629333 8.981333 0.32 0.042667 2.325333 3.349333 12.309333 8.661334 18.730667 9.941333 35.477333 16.64 48.426667 19.370666 6.165333 1.322667 13.930667 1.450667 22.144 1.578667 7.082667 0.128 14.165333 0.256 20.586666 1.066667 21.12 2.602667 28.949333-5.674667 34.581334-37.184 0.149333-0.810667 0.064-2.837333 0-4.437334-0.234667-5.845333-0.533333-13.866667 5.482666-19.797333 5.248-5.184 13.845333-6.378667 25.408-7.082667-2.666667-13.205333-4.928-26.816 13.333334-40.405333 14.784-11.029333 31.488-14.421333 46.208-17.429333 13.781333-2.816 26.816-5.482667 36.970666-13.824 22.250667-18.346667 30.933333-35.221333 25.749334-50.176a105.237333 105.237333 0 0 0-1.536-4.202667c-1.706667-0.106667-4.416-0.106667-7.082667-0.128l-2.453333-0.021333c-2.112 0-5.034667-0.042667-5.824 0.256-0.064 0.448 0.149333 2.858667 0.277333 4.458666 0.512 5.76 1.344 15.402667-6.165333 22.698667-2.389333 2.368-10.154667 9.408-39.296 9.173333a85.973333 85.973333 0 0 1-15.509334-2.005333c-4.010667-0.768-8.064-1.685333-12.053333-1.578667-0.618667 0-2.048 0.362667-3.242667 0.661334-4.437333 1.088-12.778667 3.072-19.946666-2.986667-5.589333-4.714667-6.762667-11.584-7.616-16.618667-0.298667-1.728-0.746667-4.330667-1.173334-5.098666-5.781333-6.784-25.898667-13.504-39.189333-17.941334a351.061333 351.061333 0 0 1-13.013333-4.522666l-4.458667-1.664c-10.965333-3.946667-14.656-6.826667-19.498667-19.605334-4.778667-12.48-4.650667-29.12-4.522666-42.474666v-8.746667a10.88 10.88 0 0 1 10.112-11.008c5.717333-0.426667 9.877333-2.965333 15.189333-6.229333 5.738667-3.498667 12.224-7.466667 21.162667-8.789334 36.458667-5.333333 41.301333 18.709333 44.970666 36.245334 6.336 30.272 23.850667 41.109333 56.832 35.114666 10.176-1.856 12.352-3.562667 12.565334-3.776-0.853333 0-3.221333-5.376-5.141334-9.706666l-2.837333-6.613334c-5.525333-13.141333-5.866667-23.722667-1.024-32.341333 6.848-12.181333 21.845333-15.850667 34.112-17.685333 37.696-5.525333 49.258667 10.112 67.008 33.877333l4.650667 6.229333c9.749333 12.885333 11.989333 15.296 23.744 14.272 2.304-0.192 5.525333-0.384 9.301333-0.576 29.184-1.536 45.909333-4.202667 49.728-7.914666 2.453333-2.965333-3.413333-17.472-5.333333-22.229334l-1.344-3.392a153.216 153.216 0 0 1-10.602667-41.322666c-1.472-11.093333-3.882667-16.618667-10.24-23.637334-2.474667-2.730667-4.970667-4.864-7.274667-6.848-6.72-5.781333-14.336-12.330667-15.552-25.834666a63.189333 63.189333 0 0 1 0.448-13.205334c0.469333-4.309333 0.874667-8.021333-0.021333-11.690666-2.048-8.32-2.261333-8.981333-21.290667-6.08a152.874667 152.874667 0 0 1-9.962666 1.045333c-10.112 0.832-19.242667 1.898667-20.16 5.952-0.426667 1.536 0.661333 5.205333 1.536 8.149333 1.834667 6.229333 4.330667 14.784 0.725333 23.530667-2.069333 5.034667-6.208 9.066667-10.218667 12.949333-1.728 1.685333-3.456 3.264-4.544 4.778667-15.317333 21.461333-37.397333 35.477333-60.544 38.528-18.709333 2.496-34.389333-8.149333-41.770666-28.309333-2.176-5.930667-4.608-14.72-0.810667-22.848 3.904-8.384 11.904-11.264 18.922667-13.802667 2.688-0.981333 5.610667-2.005333 8.426666-3.498667 5.269333-2.816 9.173333-10.197333 8.682667-16.426666-0.32-4.416-2.624-7.210667-7.210667-8.832-1.792-0.405333-11.242667 3.072-16.597333 5.034666-13.589333 4.992-27.584 10.197333-37.866667 3.306667a17.813333 17.813333 0 0 1-4.373333-4.202667c-10.389333 2.88-12.224 4.864-12.288 5.824-0.085333 1.258667 2.069333 4.650667 3.626667 7.104 3.52 5.546667 8.362667 13.162667 7.872 23.104-1.322667 27.498667-21.632 47.893333-49.429334 49.6a11.008 11.008 0 0 1-11.008-7.552c-2.325333-7.36-2.090667-15.296-1.856-22.976 0.384-11.477333 0.277333-18.709333-4.288-22.656-2.154667-1.834667-12.458667-3.562667-22.976-0.853333-7.018667 1.792-9.344 4.394667-9.578666 4.928a10.837333 10.837333 0 1 1-21.376-3.946667c1.685333-9.130667 9.045333-16.448 20.714666-20.565333 14.912-5.290667 36.672-5.226667 47.381334 3.968 12.757333 10.986667 12.245333 26.965333 11.84 39.829333-0.064 2.069333-0.128 4.096-0.149334 6.016 11.093333-4.181333 18.389333-14.08 19.008-26.837333 0.128-3.072-2.005333-6.464-4.522666-10.410667-3.349333-5.312-7.530667-11.882667-6.976-20.245333 1.301333-18.944 22.805333-24.106667 34.389333-26.901333l3.754667-0.917334a10.773333 10.773333 0 0 1 13.546666 9.194667c4.245333-0.533333 12.032-3.392 17.024-5.248 11.605333-4.245333 22.570667-8.234667 31.317334-5.162667 12.778667 4.501333 20.693333 14.613333 21.696 27.712 1.130667 14.997333-7.146667 30.293333-20.138667 37.226667a83.072 83.072 0 0 1-11.264 4.778667c-2.261333 0.832-5.674667 2.048-6.741333 2.858666 0.192 0.170667 0.256 2.005333 1.685333 5.866667 3.84 10.538667 10.069333 15.253333 18.538667 14.229333 16.96-2.218667 34.048-13.290667 45.717333-29.610666a62.506667 62.506667 0 0 1 7.082667-7.744c1.749333-1.706667 4.672-4.565333 5.312-5.76 0.64-1.578667-0.533333-5.525333-1.536-9.024-1.578667-5.376-3.562667-12.074667-1.92-19.157334 4.565333-19.925333 26.474667-21.696 39.573333-22.741333 2.88-0.234667 5.589333-0.448 8-0.810667 17.685333-2.709333 39.296-5.994667 46.144 22.357334 1.813333 7.36 1.130667 13.632 0.490667 19.157333-0.298667 2.922667-0.661333 5.824-0.405334 8.896 0.405333 4.544 2.261333 6.357333 8.085334 11.370667 2.944 2.538667 6.101333 5.269333 9.216 8.746666 10.709333 11.776 13.952 22.250667 15.68 35.349334 1.984 14.848 4.074667 22.997333 9.28 36.245333l1.322666 3.2c4.992 12.565333 12.608 31.424 1.706667 44.458667z" p-id="2758"></path></svg>