<?xml version="1.0" standalone="no"?><!DOCTYPE svg PUBLIC "-//W3C//DTD SVG 1.1//EN" "http://www.w3.org/Graphics/SVG/1.1/DTD/svg11.dtd"><svg t="1745924828070" class="icon" viewBox="0 0 1024 1024" version="1.1" xmlns="http://www.w3.org/2000/svg" p-id="11093" xmlns:xlink="http://www.w3.org/1999/xlink" width="200" height="200"><path d="M785 179.88l-522.71-0.43c-39.37-0.03-71.3 31.85-71.34 71.22l-0.43 522.71c-0.03 39.37 31.85 71.3 71.22 71.34l522.71 0.43c39.37 0.03 71.3-31.85 71.34-71.22l0.43-522.71c0.03-39.37-31.85-71.3-71.22-71.34z m-42.03 453.61c-1.15 15.61-14.58 27.47-30.23 27.46l-242.47-0.2c-11.98 31.25-42.28 53.42-77.74 53.39-46.6-0.04-84.21-38.39-83.06-85.24 1.11-45.3 38.99-81.69 84.3-81.07 34.99 0.48 64.74 22.57 76.55 53.51l243.06 0.2c17.14 0.01 30.87 14.54 29.59 31.94z m-29.45-210.14l-76.74-0.06c-11.98 31.25-42.28 53.42-77.74 53.39-35.46-0.03-65.72-22.25-77.65-53.52l-147.43-0.12c-15.65-0.01-29.06-11.9-30.18-27.51-1.25-17.41 12.51-31.91 29.64-31.89l148.01 0.12c11.98-31.25 42.28-53.42 77.74-53.39 35.46 0.03 65.72 22.25 77.65 53.52l76.16 0.06c15.65 0.01 29.06 11.9 30.18 27.51 1.25 17.41-12.51 31.91-29.64 31.89z" p-id="11094"></path></svg>