<?xml version="1.0" standalone="no"?><!DOCTYPE svg PUBLIC "-//W3C//DTD SVG 1.1//EN" "http://www.w3.org/Graphics/SVG/1.1/DTD/svg11.dtd"><svg t="1746249932754" class="icon" viewBox="0 0 1024 1024" version="1.1" xmlns="http://www.w3.org/2000/svg" p-id="12334" xmlns:xlink="http://www.w3.org/1999/xlink" width="200" height="200"><path d="M905.752381 0H118.247619A44.373333 44.373333 0 0 0 73.874286 44.373333v935.253334a44.373333 44.373333 0 0 0 44.373333 44.373333h787.504762a44.373333 44.373333 0 0 0 44.373333-44.373333V44.373333a44.373333 44.373333 0 0 0-44.373333-44.373333zM252.342857 226.255238a44.373333 44.373333 0 0 1 44.373333-44.373333h431.542858a44.373333 44.373333 0 0 1 44.373333 44.373333V438.857143a44.373333 44.373333 0 0 1-44.373333 44.373333H296.71619A44.373333 44.373333 0 0 1 252.342857 438.857143z m151.161905 508.586667h-26.819048v26.819047a44.373333 44.373333 0 0 1-88.259047 0v-26.819047h-26.819048a44.373333 44.373333 0 1 1 0-88.259048h26.819048v-26.819047a44.373333 44.373333 0 0 1 88.259047 0v26.819047h26.819048a44.373333 44.373333 0 1 1 0 88.259048z m358.4 119.954285H620.007619a44.373333 44.373333 0 1 1 0-88.259047h142.384762a44.373333 44.373333 0 1 1 0 88.259047z m0-190.659047H620.007619a44.373333 44.373333 0 1 1 0-88.259048h142.384762a44.373333 44.373333 0 1 1 0 88.259048z" fill="#5E5C5C" p-id="12335"></path><path d="M340.601905 270.628571h343.283809v123.367619H340.601905z" fill="#5E5C5C" p-id="12336"></path></svg>