<?xml version="1.0" standalone="no"?><!DOCTYPE svg PUBLIC "-//W3C//DTD SVG 1.1//EN" "http://www.w3.org/Graphics/SVG/1.1/DTD/svg11.dtd"><svg t="1745927485860" class="icon" viewBox="0 0 1024 1024" version="1.1" xmlns="http://www.w3.org/2000/svg" p-id="2369" xmlns:xlink="http://www.w3.org/1999/xlink" width="200" height="200"><path d="M513.2 960c-27.2 0-54.4-2.4-81.6-7.2-4-0.8-8-1.6-12-2.4-4-0.8-8-1.6-12-2.4-4-0.8-8-1.6-12-2.4-4-0.8-8-1.6-12-2.4-4-0.8-7.2-1.6-10.4-2.4-0.8 0-1.6-0.8-2.4-0.8-67.2-16.8-130.4-49.6-183.2-94.4-0.8-0.8-1.6-0.8-2.4-1.6-3.2-2.4-6.4-5.6-9.6-8-3.2-2.4-6.4-5.6-9.6-8-3.2-2.4-6.4-5.6-9.6-8-3.2-2.4-5.6-4.8-8-7.2-0.8-0.8-1.6-1.6-1.6-1.6-50.4-46.4-88-103.2-112-165.6-0.8-1.6-1.6-3.2-2.4-4.8-1.6-4-3.2-8-4.8-12-1.6-4-3.2-8-4.8-12-1.6-4-3.2-8-4-12-1.6-4-2.4-8-4-12-0.8-2.4-1.6-5.6-2.4-8-0.8-2.4-0.8-4-1.6-6.4C5.6 536 2.4 505.6 2.4 474.4c0-11.2 0.8-23.2 1.6-34.4 0.8-10.4 2.4-20.8 4-31.2 0-0.8 0-0.8 0-1.6 1.6-9.6 3.2-19.2 5.6-29.6 0.8-3.2 1.6-5.6 2.4-8.8 0.8-3.2 1.6-6.4 2.4-9.6 0.8-3.2 1.6-6.4 2.4-9.6 0.8-3.2 1.6-6.4 2.4-9.6 5.6-20 12-39.2 20-57.6 0.8-1.6 1.6-3.2 2.4-4.8 0.8-1.6 1.6-3.2 2.4-4.8 0.8-1.6 1.6-3.2 2.4-4.8 0.8-0.8 0.8-1.6 1.6-2.4 63.2-122.4 175.2-215.2 308-252.8 8-2.4 16-4 24-5.6 8-1.6 16-3.2 24-4.8 8-1.6 16-2.4 24-3.2 8-0.8 16-1.6 24-2.4 1.6 0 3.2-0.8 5.6-0.8 24-1.6 48-2.4 72-1.6 11.2 0.8 22.4 1.6 32.8 2.4 10.4 0.8 20.8 2.4 31.2 4 0.8 0 1.6 0 2.4 0.8 8.8 1.6 17.6 3.2 26.4 4.8 2.4 0.8 4.8 0.8 7.2 1.6 2.4 0.8 4.8 0.8 7.2 1.6 2.4 0.8 4.8 0.8 7.2 1.6 2.4 0.8 4.8 0.8 7.2 1.6 3.2 0.8 6.4 1.6 8.8 2.4 0.8 0 1.6 0.8 2.4 0.8 8 2.4 16 4.8 24 7.2 2.4 0.8 5.6 1.6 8 2.4 2.4 0.8 5.6 1.6 8 2.4 2.4 0.8 5.6 1.6 8 2.4 2.4 0.8 5.6 1.6 8 2.4 3.2 0.8 6.4 2.4 9.6 3.2 0.8 0 0.8 0.8 1.6 0.8 8 2.4 16 5.6 24 8.8 121.6 48.8 219.2 148 264.8 270.4 0.8 1.6 1.6 3.2 2.4 4.8 1.6 4 3.2 8 4.8 12 1.6 4 3.2 8 4.8 12 1.6 4 3.2 8 4 12 1.6 4 2.4 8 4 12 0.8 2.4 1.6 5.6 2.4 8 0 0.8 0.8 1.6 0.8 2.4 2.4 8.8 4.8 17.6 6.4 26.4 0.8 3.2 1.6 6.4 1.6 9.6 0.8 3.2 1.6 6.4 1.6 9.6 0.8 3.2 0.8 6.4 1.6 9.6 0.8 3.2 0.8 6.4 1.6 9.6 0.8 3.2 0.8 6.4 0.8 9.6 0 0.8 0 1.6 0.8 2.4 1.6 13.6 2.4 28 2.4 42.4 0 32-3.2 63.2-9.6 94.4-0.8 3.2-1.6 6.4-2.4 9.6-0.8 3.2-1.6 6.4-2.4 9.6-0.8 3.2-1.6 6.4-2.4 9.6-0.8 3.2-1.6 6.4-2.4 9.6-0.8 2.4-1.6 4.8-2.4 7.2-0.8 1.6-0.8 3.2-1.6 4.8-36 103.2-106.4 193.6-198.4 252-0.8 0.8-1.6 0.8-2.4 1.6-4.8 3.2-9.6 6.4-14.4 9.6-4.8 3.2-9.6 6.4-14.4 9.6-4.8 3.2-9.6 6.4-15.2 8.8-4.8 3.2-9.6 5.6-14.4 8-3.2 1.6-6.4 3.2-9.6 4.8-0.8 0.8-1.6 0.8-2.4 0.8-5.6 2.4-11.2 4.8-16.8 7.2-3.2 0.8-5.6 2.4-8.8 3.2-3.2 0.8-5.6 2.4-8.8 3.2-3.2 0.8-5.6 2.4-8.8 3.2-3.2 0.8-5.6 2.4-8.8 3.2-3.2 0.8-6.4 2.4-9.6 3.2-0.8 0-1.6 0.8-2.4 0.8-7.2 2.4-14.4 4-21.6 5.6-4 0.8-8 1.6-12 2.4-4 0.8-8 1.6-12 2.4-4 0.8-8 1.6-12 2.4-4 0.8-8 0.8-12 1.6-0.8 0-1.6 0-2.4 0-27.2 4-55.2 5.6-83.2 4z m0-80c213.6 0 387.2-173.6 387.2-387.2 0-213.6-173.6-387.2-387.2-387.2-213.6 0-387.2 173.6-387.2 387.2C126 706.4 299.6 880 513.2 880z" fill="#666666" p-id="2370"></path><path d="M513.2 554.4c-16 0-28-12-28-27.2V374.4c0-16 12.8-27.2 28-27.2s28 12 28 27.2v152c0 15.2-12 28-28 28zM513.2 654.4c-22.4 0-40-17.6-40-40s17.6-40 40-40 40 17.6 40 40-17.6 40-40 40z" fill="#000000" p-id="2371"></path></svg> 