<?xml version="1.0" standalone="no"?><!DOCTYPE svg PUBLIC "-//W3C//DTD SVG 1.1//EN" "http://www.w3.org/Graphics/SVG/1.1/DTD/svg11.dtd"><svg t="1746250015353" class="icon" viewBox="0 0 1065 1024" version="1.1" xmlns="http://www.w3.org/2000/svg" p-id="19508" xmlns:xlink="http://www.w3.org/1999/xlink" width="208.0078125" height="200"><path d="M1040.384769 696.877759c-32.375646-29.170136-242.657067-196.17718-242.657067-196.17718s-39.427766-210.281421-211.563624-246.022852c48.403193-19.874159 82.221318-66.995148 82.221317-121.649084C668.545671 60.103303 608.602644 1.121928 534.715651 1.121928c-73.886993 0-133.669745 58.981374-133.669745 131.74644 0 54.814212 33.9784 101.935201 82.381593 121.809359-172.456409 36.222257-216.852716 246.022852-216.852716 246.022852S56.293362 667.707622 23.917717 696.877759C-26.248507 752.172797 2.280528 881.354829 111.588401 799.774613c-17.630302 17.470027 232.559712-206.114259 232.559712-206.114259s25.002974-9.937079 25.002973 56.577242v154.185005H187.3987c-58.660823 0-106.102363 52.41008-106.102364 110.109251 0 57.859446 47.601816 107.865394 106.102364 107.865393H876.903786c58.660823 0 106.102363-50.005948 106.102364-107.865393s-47.601816-110.10925-106.102364-110.109251H703.646v-154.185005c0-66.354046 16.508374-56.577242 16.508373-56.577242S970.344387 817.404915 952.714085 799.774613c109.147597 81.419941 137.836907-47.601816 87.670684-102.896854z m0 0" p-id="19509"></path></svg>