<?xml version="1.0" standalone="no"?><!DOCTYPE svg PUBLIC "-//W3C//DTD SVG 1.1//EN" "http://www.w3.org/Graphics/SVG/1.1/DTD/svg11.dtd"><svg t="1745583093273" class="icon" viewBox="0 0 1024 1024" version="1.1" xmlns="http://www.w3.org/2000/svg" p-id="5023" xmlns:xlink="http://www.w3.org/1999/xlink" width="200" height="200"><path d="M517 81c250.185 0 453 202.815 453 453S767.185 987 517 987 64 784.185 64 534 266.815 81 517 81z m0 59.787c-217.166 0-393.213 176.047-393.213 393.213 0 217.166 176.047 393.213 393.213 393.213 217.166 0 393.213-176.047 393.213-393.213 0-217.166-176.047-393.213-393.213-393.213z m0.047 469.094c85.594 0 160.654 41.037 223.584 120.783 10.227 12.96 8.012 31.758-4.949 41.985-12.96 10.227-31.757 8.012-41.985-4.948-52.185-66.13-110.537-98.033-176.65-98.033-65.876 0-122.443 31.656-171.554 97.404-9.88 13.227-28.612 15.94-41.84 6.06-13.226-9.88-15.94-28.612-6.06-41.84 59.854-80.128 133.623-121.41 219.454-121.41zM383.629 366.137c38.1 0 68.985 30.886 68.985 68.985 0 38.1-30.885 68.985-68.985 68.985-38.099 0-68.984-30.886-68.984-68.985 0-38.1 30.885-68.985 68.984-68.985z m273.64 0c38.1 0 68.985 30.886 68.985 68.985 0 38.1-30.886 68.985-68.985 68.985-38.1 0-68.985-30.886-68.985-68.985 0-38.1 30.886-68.985 68.985-68.985z" fill="#333333" p-id="5024"></path></svg>