<?xml version="1.0" standalone="no"?><!DOCTYPE svg PUBLIC "-//W3C//DTD SVG 1.1//EN" "http://www.w3.org/Graphics/SVG/1.1/DTD/svg11.dtd"><svg t="1745583219764" class="icon" viewBox="0 0 1024 1024" version="1.1" xmlns="http://www.w3.org/2000/svg" p-id="11030" xmlns:xlink="http://www.w3.org/1999/xlink" width="200" height="200"><path d="M512 85.333333a426.666667 426.666667 0 0 0-145.493333 827.306667h2.56a418.56 418.56 0 0 0 285.866666 0h2.56A426.666667 426.666667 0 0 0 512 85.333333z m85.333333 756.906667a333.653333 333.653333 0 0 1-170.666666 0V682.666667h170.666666v159.573333z m85.333334-34.986667V469.333333a42.666667 42.666667 0 0 0 0-85.333333h-85.333334a42.666667 42.666667 0 1 0 0 85.333333v128h-170.666666v-128a42.666667 42.666667 0 0 0 0-85.333333H341.333333a42.666667 42.666667 0 0 0 0 85.333333v337.92a341.333333 341.333333 0 1 1 341.333334 0z" fill="#000000" p-id="11031"></path></svg>