<?xml version="1.0" standalone="no"?><!DOCTYPE svg PUBLIC "-//W3C//DTD SVG 1.1//EN" "http://www.w3.org/Graphics/SVG/1.1/DTD/svg11.dtd"><svg t="1746249731197" class="icon" viewBox="0 0 1024 1024" version="1.1" xmlns="http://www.w3.org/2000/svg" p-id="5145" xmlns:xlink="http://www.w3.org/1999/xlink" width="200" height="200"><path d="M472.064 518.656c36.352-103.424 149.504-158.208 252.928-121.856 33.792 11.776 64 32.768 87.04 60.416 14.336-3.072 29.184-5.12 44.032-5.12h6.656c11.776-111.104-22.528-182.784-22.528-182.784-48.128-112.64-178.176-164.864-290.816-117.248C473.088 184.32 421.888 256.512 415.232 338.944c-93.184-78.848-232.448-67.584-311.808 25.6-54.784 64-68.096 153.6-34.304 230.912 0 0 50.688 143.36 236.544 216.064 89.088 34.816 181.248 60.928 275.456 77.312-33.792-43.008-63.488-89.088-88.064-137.728-58.368-115.2-28.672-211.456-20.992-232.448z" fill="#3366FF" p-id="5146"></path><path d="M892.928 540.16c-41.472-13.824-87.04-3.584-118.784 26.624-9.216-63.488-68.096-108.032-131.584-98.816-44.032 6.144-80.384 36.864-94.208 78.848 0 0-30.208 74.24 17.408 167.424 25.088 49.152 55.296 95.744 90.624 138.24 9.216 10.752 23.552 15.36 37.376 12.288 53.76-13.312 106.496-32.256 156.16-56.32 93.696-46.592 115.2-120.32 115.2-120.32 21.504-60.928-10.752-126.976-72.192-147.968 0.512 0 0.512 0 0 0z" fill="#AEC9FF" p-id="5147"></path></svg>