<?xml version="1.0" standalone="no"?><!DOCTYPE svg PUBLIC "-//W3C//DTD SVG 1.1//EN" "http://www.w3.org/Graphics/SVG/1.1/DTD/svg11.dtd"><svg t="1745924787531" class="icon" viewBox="0 0 1024 1024" version="1.1" xmlns="http://www.w3.org/2000/svg" p-id="3744" xmlns:xlink="http://www.w3.org/1999/xlink" width="200" height="200"><path d="M960.838192 462.465568a452.948035 452.948035 0 0 0-496.642163-406.658217 456.841572 456.841572 0 0 0-401.466836 504.429235 452.948035 452.948035 0 0 0 496.642163 406.658218 456.841572 456.841572 0 0 0 401.466836-503.996621z m-300.667512-138.43684a73.111956 73.111956 0 1 1-71.814111 72.679341 72.246726 72.246726 0 0 1 71.814111-73.111956z m-296.773975 0a73.111956 73.111956 0 1 1-71.814111 72.679341A72.246726 72.246726 0 0 1 363.396705 324.028728z m369.885931 311.915505a227.12294 227.12294 0 0 1-221.498944 167.422053 224.094635 224.094635 0 0 1-222.364174-173.046049 34.176595 34.176595 0 0 1 33.311365-37.204901h373.346853c9.084918 0 43.261512 3.460921 37.2049 41.098437z m0 0" p-id="3745"></path></svg>