<?xml version="1.0" standalone="no"?><!DOCTYPE svg PUBLIC "-//W3C//DTD SVG 1.1//EN" "http://www.w3.org/Graphics/SVG/1.1/DTD/svg11.dtd"><svg t="1745834137907" class="icon" viewBox="0 0 1024 1024" version="1.1" xmlns="http://www.w3.org/2000/svg" p-id="12055" xmlns:xlink="http://www.w3.org/1999/xlink" width="200" height="200"><path d="M224.6 794.1l166.1-40.3c12.2-3 23.4-9.2 32.2-18.1L853 305.6c21.4-21.4 33.4-50.4 33.4-80.6 0-30.2-12-59.3-33.4-80.6l-48.4-48.3c-44.5-44.5-116.7-44.5-161.3 0L209.9 529.5c-7.5 7.5-13.2 16.7-16.6 26.8L143.6 706c-7.8 23.6-2.3 49.6 14.6 67.9 16.8 18.3 42.3 26 66.4 20.2zM708 160.4c8.9-8.9 23.3-8.9 32.2 0l48.4 48.4c8.9 8.9 8.9 23.3 0 32.2l-50.9 50.9-80.6-80.6 50.9-50.9zM869.7 885.3H157.1c-21.3 0-38.6 17.3-38.6 38.6s17.3 38.6 38.6 38.6h712.6c21.3 0 38.6-17.3 38.6-38.6s-17.3-38.6-38.6-38.6z" p-id="12056"></path></svg>