<?xml version="1.0" standalone="no"?><!DOCTYPE svg PUBLIC "-//W3C//DTD SVG 1.1//EN" "http://www.w3.org/Graphics/SVG/1.1/DTD/svg11.dtd"><svg t="1745583184436" class="icon" viewBox="0 0 1024 1024" version="1.1" xmlns="http://www.w3.org/2000/svg" p-id="8748" xmlns:xlink="http://www.w3.org/1999/xlink" width="200" height="200"><path d="M512 63.488q93.184 0 174.592 35.328t142.336 95.744 96.256 142.336 35.328 174.08q0 93.184-35.328 174.592t-96.256 142.336-142.336 96.256-174.592 35.328q-92.16 0-174.08-35.328t-142.336-96.256-95.744-142.336-35.328-174.592q0-92.16 35.328-174.08t95.744-142.336 142.336-95.744 174.08-35.328zM247.808 274.432q13.312 43.008 28.672 78.848 13.312 30.72 29.696 59.904t33.792 37.376q17.408 9.216 36.864 1.536t35.84-20.992q18.432-15.36 37.888-38.912zM749.568 812.032q8.192-3.072 12.8-8.192t6.144-11.264 1.536-11.776-1.024-7.68q-2.048-8.192-5.12-11.264-12.288-28.672-35.84-51.712t-56.32-39.936-73.728-26.112-88.064-9.216-89.6 10.24-76.288 28.672-57.856 43.008-33.28 53.248q-1.024 1.024-1.024 3.072-2.048 6.144 1.024 20.48t18.432 18.432q23.552-29.696 57.344-53.248 29.696-20.48 73.728-36.864t105.472-16.384 107.008 16.384 75.264 36.864q34.816 23.552 59.392 53.248zM680.96 450.56q17.408-8.192 33.792-37.376t29.696-59.904q15.36-35.84 28.672-78.848l-202.752 117.76q19.456 23.552 37.888 38.912 16.384 13.312 35.84 20.992t36.864-1.536z" p-id="8749"></path></svg>