<?xml version="1.0" standalone="no"?><!DOCTYPE svg PUBLIC "-//W3C//DTD SVG 1.1//EN" "http://www.w3.org/Graphics/SVG/1.1/DTD/svg11.dtd"><svg t="1745834203999" class="icon" viewBox="0 0 1024 1024" version="1.1" xmlns="http://www.w3.org/2000/svg" p-id="18522" xmlns:xlink="http://www.w3.org/1999/xlink" width="200" height="200"><path d="M1015.457024 8.533248a27.511192 27.511192 0 0 1 0 39.833202L833.425778 230.397696l59.732736 59.732736c17.066496 17.066496 25.599744 36.96603 25.599744 59.732736s-8.533248 45.499278-25.599744 59.732736l-33.586864 33.586864a29.627437 29.627437 0 0 1-6.246338 9.079376L452.262656 853.3248a29.286107 29.286107 0 0 1-8.66978 5.870875l-33.99646 33.962327c-14.233458 17.066496-36.96603 25.599744-59.732736 25.599744s-42.66624-8.533248-59.732736-25.599744l-59.766869-59.766869-181.997113 182.065379a25.838675 25.838675 0 0 1-19.933668 8.533248 25.838675 25.838675 0 0 1-19.899534-8.533248 27.511192 27.511192 0 0 1 0-39.833202l182.031246-182.031246-62.565774-62.565774c-17.066496-17.066496-25.599744-37.000163-25.599744-59.732736 0-22.766706 8.533248-45.533411 25.599744-59.732736L611.56133 127.99872c31.265821-31.299954 88.165518-31.299954 119.465472 0l62.565774 62.565774L975.623822 8.533248a27.511192 27.511192 0 0 1 39.833202 0zM291.530397 533.293867l-39.833202 39.833202 200.565461 200.565461 39.833202-39.833202-200.565461-200.565461z m140.798592-140.798592l-39.833202 39.833202 200.565461 200.565461 39.833202-39.833202-200.565461-200.565461z m140.798592-140.798592l-39.833202 39.833202 200.565461 200.565461 39.833202-39.833202-200.565461-200.565461z" p-id="18523"></path></svg>