<?xml version="1.0" standalone="no"?><!DOCTYPE svg PUBLIC "-//W3C//DTD SVG 1.1//EN" "http://www.w3.org/Graphics/SVG/1.1/DTD/svg11.dtd"><svg t="1746250203290" class="icon" viewBox="0 0 1024 1024" version="1.1" xmlns="http://www.w3.org/2000/svg" p-id="34327" xmlns:xlink="http://www.w3.org/1999/xlink" width="200" height="200"><path d="M511.3344 0a42.8032 42.8032 0 0 0-29.9008 12.8 42.0864 42.0864 0 0 0-12.032 30.0544v42.2912a41.984 41.984 0 0 0 26.112 39.5776 42.9056 42.9056 0 0 0 56.0128-23.2448 41.984 41.984 0 0 0 3.072-16.384V42.9056a41.984 41.984 0 0 0-26.624-39.7824 42.9568 42.9568 0 0 0-16.64-3.072z m-331.264 136.2944a42.8544 42.8544 0 0 0-39.5264 26.4192 41.984 41.984 0 0 0 9.8816 46.2336l30.1568 29.9008a42.6496 42.6496 0 0 0 46.848 9.8816 42.6496 42.6496 0 0 0 23.3472-23.1936 41.984 41.984 0 0 0-9.9328-46.4384l-30.1568-29.9008a42.6496 42.6496 0 0 0-30.6176-12.9024z m662.528 0.1024a42.8032 42.8032 0 0 0-29.2864 12.8l-30.1568 29.9008a42.2912 42.2912 0 0 0-9.9328 46.4384 42.2912 42.2912 0 0 0 23.3472 23.1936 42.9568 42.9568 0 0 0 46.848-9.8816l30.1568-29.9008a42.1376 42.1376 0 0 0-30.976-72.5504zM512 211.9168c-164.5056 0-298.2912 132.7616-298.2912 295.936 0 117.7088 69.8368 219.2896 170.4448 266.9056v164.7104c0 46.592 38.2464 84.5312 85.248 84.5312h85.1968a84.992 84.992 0 0 0 85.248-84.5312v-164.7104c100.608-47.616 170.496-149.1968 170.496-266.9568 0-163.1232-133.8368-295.8848-298.3424-295.8848zM43.2128 465.5616a42.9056 42.9056 0 0 0-39.936 25.9584 41.984 41.984 0 0 0 23.4496 55.552 43.008 43.008 0 0 0 16.4864 3.072h42.6496a43.008 43.008 0 0 0 39.936-26.0096 41.984 41.984 0 0 0-23.4496-55.552 42.9056 42.9056 0 0 0-16.4864-3.072H43.2128z m894.976 0a42.9568 42.9568 0 0 0-39.936 25.9584 41.984 41.984 0 0 0 23.3984 55.552 43.008 43.008 0 0 0 16.4864 3.072h42.6496a43.008 43.008 0 0 0 30.5152-12.2368 42.24 42.24 0 0 0 9.4208-46.3872 42.24 42.24 0 0 0-23.4496-22.9376 42.9568 42.9568 0 0 0-16.4864-3.072h-42.5984zM209.8176 764.0064a42.8032 42.8032 0 0 0-29.2864 12.8l-30.1568 29.9008a42.2912 42.2912 0 0 0-9.9328 46.4384 42.24 42.24 0 0 0 23.3472 23.1936 43.008 43.008 0 0 0 46.848-9.8816l30.1568-29.9008a42.1888 42.1888 0 0 0-30.976-72.5504z m603.0336 0a42.9056 42.9056 0 0 0-39.4752 26.368 41.984 41.984 0 0 0 9.728 46.1824l30.1568 29.9008a42.5984 42.5984 0 0 0 46.848 9.8816 42.5984 42.5984 0 0 0 26.5216-39.5776 41.984 41.984 0 0 0-13.1072-30.0544l-30.1568-29.9008a42.5472 42.5472 0 0 0-30.5152-12.8z" fill="#E67F77" p-id="34328"></path></svg>