<?xml version="1.0" standalone="no"?><!DOCTYPE svg PUBLIC "-//W3C//DTD SVG 1.1//EN" "http://www.w3.org/Graphics/SVG/1.1/DTD/svg11.dtd"><svg t="1746250148153" class="icon" viewBox="0 0 1024 1024" version="1.1" xmlns="http://www.w3.org/2000/svg" p-id="30586" xmlns:xlink="http://www.w3.org/1999/xlink" width="200" height="200"><path d="M480 0a480 480 0 1 1 0 960 480 480 0 0 1 0-960z m0 128a352 352 0 1 0 0 704 352 352 0 0 0 0-704z" p-id="30587"></path><path d="M448 256v448L192 480zM512 256v448l256-224z" p-id="30588"></path><path d="M754.752 754.752a64 64 0 0 1 90.496 0l160 160a64 64 0 0 1-90.496 90.496l-160-160a64 64 0 0 1 0-90.496z" p-id="30589"></path></svg>